# Blender v3.0.1 OBJ File: 'Flat_Melee.blend'
# www.blender.org
mtllib Baseball Bat.mtl
o Baseball_Bat_Cylinder.001
v -0.000000 -0.351856 0.021608
v -0.000000 0.418613 0.035066
v -0.000000 -0.058767 0.011658
v -0.000000 -0.063115 0.014070
v -0.000000 -0.326580 0.014070
v -0.000000 -0.330500 0.021608
v -0.000000 0.071928 0.017060
v -0.000000 0.227557 0.030660
v -0.000000 -0.341178 0.025829
v -0.000000 0.427338 0.026560
v -0.000000 0.326561 0.035066
v 0.015279 -0.351856 0.015279
v 0.024795 0.418613 0.024795
v 0.008244 -0.058767 0.008244
v 0.009949 -0.063115 0.009949
v 0.009949 -0.326580 0.009949
v 0.015279 -0.330500 0.015279
v 0.012063 0.071928 0.012063
v 0.021680 0.227557 0.021680
v 0.018264 -0.341178 0.018264
v 0.018780 0.427338 0.018780
v 0.024795 0.326561 0.024795
v 0.021608 -0.351856 0.000000
v 0.035066 0.418613 0.000000
v 0.011658 -0.058767 0.000000
v 0.014070 -0.063115 0.000000
v 0.014070 -0.326580 0.000000
v 0.021608 -0.330500 0.000000
v 0.017060 0.071928 0.000000
v 0.030660 0.227557 -0.000000
v 0.025829 -0.341178 0.000000
v 0.026560 0.427338 0.000000
v 0.035066 0.326561 0.000000
v 0.015279 -0.351856 -0.015279
v 0.024795 0.418613 -0.024795
v 0.008244 -0.058767 -0.008244
v 0.009949 -0.063115 -0.009949
v 0.009949 -0.326580 -0.009949
v 0.015279 -0.330500 -0.015279
v 0.012063 0.071928 -0.012063
v 0.021680 0.227557 -0.021680
v 0.018264 -0.341178 -0.018264
v 0.018780 0.427338 -0.018780
v 0.024795 0.326561 -0.024795
v 0.000000 -0.351856 -0.021608
v 0.000000 0.418613 -0.035066
v 0.000000 -0.058767 -0.011658
v 0.000000 -0.063115 -0.014070
v 0.000000 -0.326580 -0.014070
v 0.000000 -0.330500 -0.021608
v 0.000000 0.071928 -0.017060
v -0.000000 0.227557 -0.030660
v 0.000000 -0.341178 -0.025829
v 0.000000 0.427338 -0.026560
v 0.000000 0.326561 -0.035066
v -0.015279 -0.351856 -0.015279
v -0.024795 0.418613 -0.024795
v -0.008244 -0.058767 -0.008244
v -0.009949 -0.063115 -0.009949
v -0.009949 -0.326580 -0.009949
v -0.015279 -0.330500 -0.015279
v -0.012063 0.071928 -0.012063
v -0.021680 0.227557 -0.021680
v -0.018264 -0.341178 -0.018264
v -0.018780 0.427338 -0.018780
v -0.024795 0.326561 -0.024795
v -0.021608 -0.351856 -0.000000
v -0.035066 0.418613 -0.000000
v -0.011658 -0.058767 -0.000000
v -0.014070 -0.063115 -0.000000
v -0.014070 -0.326580 -0.000000
v -0.021608 -0.330500 -0.000000
v -0.017060 0.071928 -0.000000
v -0.030660 0.227557 -0.000000
v -0.025829 -0.341178 -0.000000
v -0.026560 0.427338 -0.000000
v -0.035066 0.326561 -0.000000
v -0.015279 -0.351856 0.015279
v -0.024795 0.418613 0.024795
v -0.008244 -0.058767 0.008244
v -0.009949 -0.063115 0.009949
v -0.009949 -0.326580 0.009949
v -0.015279 -0.330500 0.015279
v -0.012063 0.071928 0.012063
v -0.021680 0.227557 0.021680
v -0.018264 -0.341178 0.018264
v -0.018780 0.427338 0.018780
v -0.024795 0.326561 0.024795
vt 0.193061 0.933560
vt 0.193061 0.933560
vt 0.193061 0.933560
vt 0.193061 0.933560
vt 0.193061 0.933560
vt 0.193061 0.933560
vt 0.193061 0.933560
vt 0.193061 0.933560
vt 0.193061 0.933560
vt 0.193061 0.933560
vt 0.193061 0.933560
vt 0.193061 0.933560
vt 0.193061 0.933560
vt 0.193061 0.933560
vt 0.193061 0.933560
vt 0.193061 0.933560
vt 0.193061 0.933560
vt 0.193061 0.933560
vt 0.193061 0.933560
vt 0.193061 0.933560
vt 0.193061 0.933560
vt 0.193061 0.933560
vt 0.193061 0.933560
vt 0.193061 0.933560
vt 0.193061 0.933560
vt 0.193061 0.933560
vt 0.193061 0.933560
vt 0.193061 0.933560
vt 0.193061 0.933560
vt 0.193061 0.933560
vt 0.193061 0.933560
vt 0.193061 0.933560
vt 0.193061 0.933560
vt 0.193061 0.933560
vt 0.193061 0.933560
vt 0.193061 0.933560
vt 0.193061 0.933560
vt 0.193061 0.933560
vt 0.193061 0.933560
vt 0.193061 0.933560
vt 0.193061 0.933560
vt 0.193061 0.933560
vt 0.193061 0.933560
vt 0.193061 0.933560
vt 0.193061 0.933560
vt 0.193061 0.933560
vt 0.193061 0.933560
vt 0.193061 0.933560
vt 0.695325 0.936661
vt 0.695325 0.936661
vt 0.695325 0.936661
vt 0.695325 0.936661
vt 0.695325 0.936661
vt 0.695325 0.936661
vt 0.695325 0.936661
vt 0.695325 0.936661
vt 0.695325 0.936661
vt 0.695325 0.936661
vt 0.695325 0.936661
vt 0.695325 0.936661
vt 0.695325 0.936661
vt 0.695325 0.936661
vt 0.695325 0.936661
vt 0.695325 0.936661
vt 0.695325 0.936661
vt 0.695325 0.936661
vt 0.695325 0.936661
vt 0.695325 0.936661
vt 0.695325 0.936661
vt 0.695325 0.936661
vt 0.695325 0.936661
vt 0.695325 0.936661
vt 0.695325 0.936661
vt 0.695325 0.936661
vt 0.695325 0.936661
vt 0.695325 0.936661
vt 0.695325 0.936661
vt 0.695325 0.936661
vt 0.695325 0.936661
vt 0.695325 0.936661
vt 0.695325 0.936661
vt 0.695325 0.936661
vt 0.695325 0.936661
vt 0.695325 0.936661
vt 0.695325 0.936661
vt 0.695325 0.936661
vt 0.695325 0.936661
vt 0.695325 0.936661
vt 0.695325 0.936661
vt 0.695325 0.936661
vt 0.695325 0.936661
vt 0.695325 0.936661
vt 0.695325 0.936661
vt 0.695325 0.936661
vt 0.695325 0.936661
vt 0.695325 0.936661
vn 0.3406 0.4561 0.8222
vn 0.8222 0.4561 0.3406
vn 0.8222 0.4561 -0.3406
vn 0.3406 0.4561 -0.8222
vn -0.3406 0.4561 -0.8222
vn -0.8222 0.4561 -0.3406
vn -0.8222 0.4561 0.3406
vn -0.3406 0.4561 0.8222
vn 0.3827 0.0000 0.9239
vn 0.9239 0.0000 0.3827
vn 0.9239 0.0000 -0.3827
vn 0.3827 0.0000 -0.9239
vn -0.3827 0.0000 -0.9239
vn -0.9239 0.0000 -0.3827
vn -0.9239 0.0000 0.3827
vn -0.3827 0.0000 0.9239
vn 0.1877 0.8714 0.4532
vn 0.4531 0.8714 0.1877
vn 0.4531 0.8714 -0.1877
vn 0.1877 0.8714 -0.4532
vn -0.1877 0.8715 -0.4531
vn -0.4531 0.8714 -0.1877
vn -0.4531 0.8714 0.1877
vn -0.1877 0.8715 0.4531
vn 0.3595 0.3430 0.8678
vn 0.8678 0.3430 0.3595
vn 0.8678 0.3430 -0.3595
vn 0.3595 0.3430 -0.8678
vn -0.3595 0.3430 -0.8678
vn -0.8678 0.3430 -0.3595
vn -0.8678 0.3430 0.3595
vn -0.3595 0.3430 0.8678
vn 0.3595 -0.3430 0.8678
vn 0.8678 -0.3430 0.3595
vn 0.8678 -0.3430 -0.3595
vn 0.3595 -0.3430 -0.8678
vn -0.3595 -0.3430 -0.8678
vn -0.8678 -0.3430 -0.3595
vn -0.8678 -0.3430 0.3595
vn -0.3595 -0.3430 0.8678
vn 0.0000 -1.0000 0.0000
vn 0.3824 -0.0382 0.9232
vn 0.9232 -0.0382 0.3824
vn 0.9232 -0.0382 -0.3824
vn 0.3824 -0.0382 -0.9232
vn -0.3824 -0.0382 -0.9232
vn -0.9232 -0.0382 -0.3824
vn -0.9232 -0.0382 0.3824
vn -0.3824 -0.0382 0.9232
vn 0.3814 -0.0805 0.9209
vn 0.9209 -0.0805 0.3814
vn 0.9209 -0.0805 -0.3814
vn 0.3814 -0.0805 -0.9209
vn -0.3814 -0.0805 -0.9209
vn -0.9209 -0.0805 -0.3814
vn -0.9209 -0.0805 0.3814
vn -0.3814 -0.0805 0.9209
vn 0.2843 0.6693 0.6864
vn 0.6864 0.6693 0.2843
vn 0.6864 0.6693 -0.2843
vn 0.2843 0.6693 -0.6864
vn -0.2843 0.6693 -0.6864
vn -0.6864 0.6693 -0.2843
vn -0.6864 0.6693 0.2843
vn -0.2843 0.6693 0.6864
vn 0.3824 -0.0411 0.9231
vn 0.9231 -0.0411 0.3824
vn 0.9231 -0.0411 -0.3824
vn 0.3824 -0.0411 -0.9231
vn -0.3824 -0.0411 -0.9231
vn -0.9231 -0.0411 -0.3824
vn -0.9231 -0.0411 0.3824
vn -0.3824 -0.0411 0.9231
vn 0.0000 1.0000 0.0000
usemtl M_PCL_Flat_Black
s off
f 15/1/1 14/2/1 3/3/1 4/4/1
f 26/5/2 25/6/2 14/2/2 15/1/2
f 37/7/3 36/8/3 25/6/3 26/5/3
f 48/9/4 47/10/4 36/8/4 37/7/4
f 59/11/5 58/12/5 47/10/5 48/9/5
f 70/13/6 69/14/6 58/12/6 59/11/6
f 81/15/7 80/16/7 69/14/7 70/13/7
f 4/4/8 3/3/8 80/16/8 81/15/8
f 16/17/9 15/1/9 4/4/9 5/18/9
f 27/19/10 26/5/10 15/1/10 16/17/10
f 38/20/11 37/7/11 26/5/11 27/19/11
f 49/21/12 48/9/12 37/7/12 38/20/12
f 60/22/13 59/11/13 48/9/13 49/21/13
f 71/23/14 70/13/14 59/11/14 60/22/14
f 82/24/15 81/15/15 70/13/15 71/23/15
f 5/18/16 4/4/16 81/15/16 82/24/16
f 17/25/17 16/17/17 5/18/17 6/26/17
f 28/27/18 27/19/18 16/17/18 17/25/18
f 39/28/19 38/20/19 27/19/19 28/27/19
f 50/29/20 49/21/20 38/20/20 39/28/20
f 61/30/21 60/22/21 49/21/21 50/29/21
f 72/31/22 71/23/22 60/22/22 61/30/22
f 83/32/23 82/24/23 71/23/23 72/31/23
f 6/26/24 5/18/24 82/24/24 83/32/24
f 20/33/25 17/25/25 6/26/25 9/34/25
f 31/35/26 28/27/26 17/25/26 20/33/26
f 42/36/27 39/28/27 28/27/27 31/35/27
f 53/37/28 50/29/28 39/28/28 42/36/28
f 64/38/29 61/30/29 50/29/29 53/37/29
f 75/39/30 72/31/30 61/30/30 64/38/30
f 86/40/31 83/32/31 72/31/31 75/39/31
f 9/34/32 6/26/32 83/32/32 86/40/32
f 12/41/33 20/33/33 9/34/33 1/42/33
f 23/43/34 31/35/34 20/33/34 12/41/34
f 34/44/35 42/36/35 31/35/35 23/43/35
f 45/45/36 53/37/36 42/36/36 34/44/36
f 56/46/37 64/38/37 53/37/37 45/45/37
f 67/47/38 75/39/38 64/38/38 56/46/38
f 78/48/39 86/40/39 75/39/39 67/47/39
f 1/42/40 9/34/40 86/40/40 78/48/40
f 1/42/41 78/48/41 67/47/41 56/46/41 45/45/41 34/44/41 23/43/41 12/41/41
usemtl M_PCL_Flat_Grey_Lighter
f 22/49/9 13/50/9 2/51/9 11/52/9
f 33/53/10 24/54/10 13/50/10 22/49/10
f 44/55/11 35/56/11 24/54/11 33/53/11
f 55/57/12 46/58/12 35/56/12 44/55/12
f 66/59/13 57/60/13 46/58/13 55/57/13
f 77/61/14 68/62/14 57/60/14 66/59/14
f 88/63/15 79/64/15 68/62/15 77/61/15
f 11/52/16 2/51/16 79/64/16 88/63/16
f 14/65/42 18/66/42 7/67/42 3/68/42
f 25/69/43 29/70/43 18/66/43 14/65/43
f 36/71/44 40/72/44 29/70/44 25/69/44
f 47/73/45 51/74/45 40/72/45 36/71/45
f 58/75/46 62/76/46 51/74/46 47/73/46
f 69/77/47 73/78/47 62/76/47 58/75/47
f 80/79/48 84/80/48 73/78/48 69/77/48
f 3/68/49 7/67/49 84/80/49 80/79/49
f 18/66/50 19/81/50 8/82/50 7/67/50
f 29/70/51 30/83/51 19/81/51 18/66/51
f 40/72/52 41/84/52 30/83/52 29/70/52
f 51/74/53 52/85/53 41/84/53 40/72/53
f 62/76/54 63/86/54 52/85/54 51/74/54
f 73/78/55 74/87/55 63/86/55 62/76/55
f 84/80/56 85/88/56 74/87/56 73/78/56
f 7/67/57 8/82/57 85/88/57 84/80/57
f 13/50/58 21/89/58 10/90/58 2/51/58
f 24/54/59 32/91/59 21/89/59 13/50/59
f 35/56/60 43/92/60 32/91/60 24/54/60
f 46/58/61 54/93/61 43/92/61 35/56/61
f 57/60/62 65/94/62 54/93/62 46/58/62
f 68/62/63 76/95/63 65/94/63 57/60/63
f 79/64/64 87/96/64 76/95/64 68/62/64
f 2/51/65 10/90/65 87/96/65 79/64/65
f 19/81/66 22/49/66 11/52/66 8/82/66
f 30/83/67 33/53/67 22/49/67 19/81/67
f 41/84/68 44/55/68 33/53/68 30/83/68
f 52/85/69 55/57/69 44/55/69 41/84/69
f 63/86/70 66/59/70 55/57/70 52/85/70
f 74/87/71 77/61/71 66/59/71 63/86/71
f 85/88/72 88/63/72 77/61/72 74/87/72
f 8/82/73 11/52/73 88/63/73 85/88/73
f 10/90/74 21/89/74 32/91/74 43/92/74 54/93/74 65/94/74 76/95/74 87/96/74
