# Blender v3.0.1 OBJ File: 'Flat_Melee.blend'
# www.blender.org
mtllib Frying Pan.mtl
o Frying_Pan_Plane.008
v 0.012790 -0.117937 0.008860
v 0.003794 -0.008083 0.008860
v 0.012790 -0.008083 0.008860
v 0.012790 -0.139110 0.008860
v 0.009989 -0.141911 0.008860
v 0.005246 -0.137168 0.008860
v 0.008047 -0.134392 0.008860
v 0.008047 -0.125456 0.008860
v 0.005246 -0.122680 0.008860
v 0.008128 0.017888 0.002924
v 0.015138 0.017888 0.002924
v -0.012790 -0.008083 0.008860
v -0.003794 -0.008083 0.008860
v -0.012790 -0.139110 0.008860
v -0.009989 -0.141911 0.008860
v -0.005246 -0.137168 0.008860
v -0.008047 -0.134392 0.008860
v -0.008047 -0.125456 0.008860
v -0.012790 -0.117937 0.008860
v -0.005246 -0.122680 0.008860
v -0.008128 0.017888 0.002924
v -0.015138 0.017888 0.002924
v 0.012790 -0.008083 -0.001140
v 0.003794 -0.008083 -0.001024
v 0.012790 -0.139110 -0.001140
v 0.009989 -0.141911 -0.001140
v 0.005246 -0.137168 -0.001140
v 0.008047 -0.134392 -0.001140
v 0.008047 -0.125456 -0.001140
v 0.012790 -0.117937 -0.001140
v 0.005246 -0.122680 -0.001140
v 0.008128 0.017888 -0.006961
v 0.015138 0.017888 -0.006961
v -0.012790 -0.008083 -0.001140
v -0.012790 -0.117937 -0.001140
v -0.003794 -0.008083 -0.001024
v -0.012790 -0.139110 -0.001140
v -0.009989 -0.141911 -0.001140
v -0.005246 -0.137168 -0.001140
v -0.008047 -0.134392 -0.001140
v -0.008047 -0.125456 -0.001140
v -0.005246 -0.122680 -0.001140
v -0.008128 0.017888 -0.006961
v -0.015138 0.017888 -0.006961
v -0.000000 0.212380 0.008860
v -0.070711 0.183091 0.008860
v -0.100000 0.112380 0.008860
v -0.070711 0.041670 0.008860
v 0.000000 0.012380 0.008860
v 0.070711 0.041670 0.008860
v 0.100000 0.112380 0.008860
v 0.070711 0.183091 0.008860
v -0.000000 0.201165 -0.012550
v -0.062780 0.175161 -0.012550
v -0.088785 0.112380 -0.012550
v -0.062780 0.049600 -0.012550
v 0.000000 0.023595 -0.012550
v 0.062780 0.049600 -0.012550
v 0.088785 0.112380 -0.012550
v 0.062780 0.175161 -0.012550
v -0.000000 0.221238 0.008860
v -0.076974 0.189355 0.008860
v -0.108858 0.112380 0.008860
v -0.076974 0.035406 0.008860
v 0.000000 0.003522 0.008860
v 0.076974 0.035406 0.008860
v 0.108858 0.112380 0.008860
v 0.076974 0.189355 0.008860
v -0.000000 0.207164 -0.020550
v -0.067022 0.179403 -0.020550
v -0.094784 0.112380 -0.020550
v -0.067022 0.045358 -0.020550
v 0.000000 0.017596 -0.020550
v 0.067022 0.045358 -0.020550
v 0.094784 0.112380 -0.020550
v 0.067022 0.179403 -0.020550
vt 0.171358 0.927854
vt 0.171358 0.927854
vt 0.171358 0.927854
vt 0.171358 0.927854
vt 0.171358 0.927854
vt 0.171358 0.927854
vt 0.171358 0.927854
vt 0.171358 0.927854
vt 0.171358 0.927854
vt 0.171358 0.927854
vt 0.171358 0.927854
vt 0.171358 0.927854
vt 0.171358 0.927854
vt 0.171358 0.927854
vt 0.171358 0.927854
vt 0.171358 0.927854
vt 0.171358 0.927854
vt 0.171358 0.927854
vt 0.171358 0.927854
vt 0.171358 0.927854
vt 0.171358 0.927854
vt 0.171358 0.927854
vt 0.171358 0.927854
vt 0.171358 0.927854
vt 0.171358 0.927854
vt 0.171358 0.927854
vt 0.171358 0.927854
vt 0.171358 0.927854
vt 0.171358 0.927854
vt 0.171358 0.927854
vt 0.171358 0.927854
vt 0.171358 0.927854
vt 0.546506 0.955758
vt 0.546506 0.955758
vt 0.546506 0.955758
vt 0.546506 0.955758
vt 0.546506 0.955758
vt 0.546506 0.955758
vt 0.546506 0.955758
vt 0.546506 0.955758
vt 0.546506 0.955758
vt 0.546506 0.955758
vt 0.546506 0.955758
vt 0.546506 0.955758
vt 0.546506 0.955758
vt 0.546506 0.955758
vt 0.546506 0.955758
vt 0.546506 0.955758
vt 0.546506 0.955758
vt 0.546506 0.955758
vt 0.546506 0.955758
vt 0.546506 0.955758
vt 0.546506 0.955758
vt 0.546506 0.955758
vt 0.546506 0.955758
vt 0.546506 0.955758
vt 0.546506 0.955758
vt 0.546506 0.955758
vt 0.546506 0.955758
vt 0.546506 0.955758
vt 0.546506 0.955758
vt 0.546506 0.955758
vt 0.546506 0.955758
vt 0.546506 0.955758
vt 0.546506 0.955758
vt 0.546506 0.955758
vt 0.546506 0.955758
vt 0.546506 0.955758
vt 0.546506 0.955758
vt 0.546506 0.955758
vt 0.546506 0.955758
vt 0.546506 0.955758
vt 0.546506 0.955758
vt 0.546506 0.955758
vt 0.546506 0.955758
vt 0.546506 0.955758
vn 0.0000 -0.0000 1.0000
vn -0.8316 0.3445 0.4356
vn 0.3445 0.8316 0.4356
vn 0.8316 -0.3445 0.4356
vn -0.8316 -0.3445 0.4356
vn -0.3445 0.8316 0.4356
vn 0.8316 0.3445 0.4356
vn 0.3445 -0.8316 0.4356
vn -0.3445 -0.8316 0.4356
vn 0.0000 0.0000 -1.0000
vn 0.8450 -0.3500 -0.4044
vn -0.3500 -0.8450 -0.4044
vn -0.8450 0.3500 -0.4044
vn 0.8450 0.3500 -0.4044
vn 0.3500 -0.8450 -0.4044
vn -0.8450 -0.3500 -0.4044
vn -0.3500 0.8450 -0.4044
vn 0.3500 0.8450 -0.4044
vn 0.0000 0.2228 0.9749
vn -0.0001 -0.0000 -1.0000
vn 0.0000 -1.0000 0.0000
vn 0.0000 -0.0001 -1.0000
vn 0.0000 1.0000 0.0000
vn -0.0070 -0.2199 -0.9755
vn 0.0001 -0.0000 -1.0000
vn 0.0070 -0.2199 -0.9755
vn 1.0000 -0.0000 0.0000
vn 0.9959 -0.0900 0.0000
vn 0.7071 -0.7071 0.0000
vn -0.7040 0.7102 0.0000
vn -0.7040 -0.7102 0.0000
vn -1.0000 -0.0000 0.0000
vn -0.9864 0.1646 0.0000
vn -0.9959 -0.0900 0.0000
vn -0.7071 -0.7071 0.0000
vn 0.7040 0.7102 0.0000
vn 0.7040 -0.7102 0.0000
vn 0.9864 0.1646 0.0000
usemtl M_PCL_Flat_Black_Lighter
s off
f 54/1/1 55/2/1 56/3/1 57/4/1 58/5/1 59/6/1 60/7/1 53/8/1
f 50/9/2 51/10/2 59/6/2 58/5/2
f 48/11/3 49/12/3 57/4/3 56/3/3
f 46/13/4 47/14/4 55/2/4 54/1/4
f 51/10/5 52/15/5 60/7/5 59/6/5
f 49/12/6 50/9/6 58/5/6 57/4/6
f 47/14/7 48/11/7 56/3/7 55/2/7
f 45/16/8 46/13/8 54/1/8 53/8/8
f 52/15/9 45/16/9 53/8/9 60/7/9
f 70/17/10 69/18/10 76/19/10 75/20/10 74/21/10 73/22/10 72/23/10 71/24/10
f 66/25/11 74/21/11 75/20/11 67/26/11
f 64/27/12 72/23/12 73/22/12 65/28/12
f 62/29/13 70/17/13 71/24/13 63/30/13
f 67/26/14 75/20/14 76/19/14 68/31/14
f 65/28/15 73/22/15 74/21/15 66/25/15
f 63/30/16 71/24/16 72/23/16 64/27/16
f 61/32/17 69/18/17 70/17/17 62/29/17
f 68/31/18 76/19/18 69/18/18 61/32/18
f 46/13/1 45/16/1 61/32/1 62/29/1
f 47/14/1 46/13/1 62/29/1 63/30/1
f 48/11/1 47/14/1 63/30/1 64/27/1
f 49/12/1 48/11/1 64/27/1 65/28/1
f 50/9/1 49/12/1 65/28/1 66/25/1
f 51/10/1 50/9/1 66/25/1 67/26/1
f 52/15/1 51/10/1 67/26/1 68/31/1
f 45/16/1 52/15/1 68/31/1 61/32/1
usemtl M_PCL_Flat_Grey_Light
f 1/33/1 19/34/1 20/35/1 9/36/1
f 1/33/1 8/37/1 7/38/1 4/39/1
f 4/39/1 7/38/1 6/40/1 5/41/1
f 39/42/10 27/43/10 26/44/10 38/45/10
f 8/37/1 1/33/1 9/36/1
f 30/46/10 35/47/10 34/48/10 23/49/10
f 2/50/19 3/51/19 11/52/19 10/53/19
f 19/34/1 14/54/1 17/55/1 18/56/1
f 14/54/1 15/57/1 16/58/1 17/55/1
f 18/56/1 20/35/1 19/34/1
f 13/59/19 21/60/19 22/61/19 12/62/19
f 31/63/10 42/64/10 35/47/10 30/46/10
f 30/46/20 25/65/20 28/66/20 29/67/20
f 25/65/10 26/44/10 27/43/10 28/66/10
f 5/41/21 15/57/21 38/45/21 26/44/21
f 29/67/22 31/63/22 30/46/22
f 24/68/23 36/69/23 13/59/23 2/50/23
f 24/68/24 32/70/24 33/71/24 23/49/24
f 35/47/25 41/72/25 40/73/25 37/74/25
f 37/74/10 40/73/10 39/42/10 38/45/10
f 41/72/22 35/47/22 42/64/22
f 36/69/26 34/48/26 44/75/26 43/76/26
f 3/51/27 1/33/27 30/46/27 23/49/27
f 9/36/21 20/35/21 42/64/21 31/63/21
f 11/52/28 3/51/28 23/49/28 33/71/28
f 4/39/29 5/41/29 26/44/29 25/65/29
f 6/40/30 7/38/30 28/66/30 27/43/30
f 16/58/23 6/40/23 27/43/23 39/42/23
f 1/33/27 4/39/27 25/65/27 30/46/27
f 8/37/31 9/36/31 31/63/31 29/67/31
f 16/58/1 15/57/1 5/41/1 6/40/1
f 7/38/32 8/37/32 29/67/32 28/66/32
f 2/50/33 10/53/33 32/70/33 24/68/33
f 10/53/23 11/52/23 33/71/23 32/70/23
f 19/34/32 12/62/32 34/48/32 35/47/32
f 12/62/34 22/61/34 44/75/34 34/48/34
f 15/57/35 14/54/35 37/74/35 38/45/35
f 17/55/36 16/58/36 39/42/36 40/73/36
f 14/54/32 19/34/32 35/47/32 37/74/32
f 20/35/37 18/56/37 41/72/37 42/64/37
f 18/56/27 17/55/27 40/73/27 41/72/27
f 21/60/38 13/59/38 36/69/38 43/76/38
f 22/61/23 21/60/23 43/76/23 44/75/23
f 12/62/1 19/34/1 1/33/1 3/51/1
