# Blender v3.0.1 OBJ File: 'Flat_Melee.blend'
# www.blender.org
mtllib Hammer.mtl
o Hammer_Circle.005
v 0.000000 -0.262274 -0.015346
v -0.018881 -0.262274 -0.007526
v 0.000000 -0.262274 0.038058
v -0.018881 -0.262274 0.030237
v -0.013875 0.025588 0.025231
v 0.000000 0.025588 0.030978
v 0.000000 0.025588 -0.008267
v -0.013875 0.025588 -0.002520
v -0.015933 -0.127058 -0.004577
v 0.000000 -0.127058 -0.011177
v -0.015933 -0.127058 0.027289
v 0.000000 -0.127058 0.033888
v -0.013875 -0.113368 -0.002520
v -0.013875 -0.113368 0.025231
v 0.000000 -0.113368 -0.008267
v 0.000000 -0.113368 0.030978
v -0.015933 -0.251182 -0.004577
v -0.015933 -0.251182 0.027289
v 0.000000 -0.251182 -0.011177
v 0.000000 -0.251182 0.033888
v -0.020354 0.043245 0.031709
v 0.000000 0.043245 0.040140
v 0.000000 0.043245 -0.017429
v -0.020354 0.043245 -0.008998
v -0.015933 -0.273366 0.027289
v 0.000000 -0.273366 0.033888
v 0.000000 -0.273366 -0.011177
v -0.015933 -0.273366 -0.004577
v -0.022010 0.043245 0.042482
v 0.000000 0.043245 -0.019770
v -0.022010 0.043245 -0.019770
v -0.022010 0.093895 0.042482
v 0.000000 0.093895 -0.019770
v -0.022010 0.093895 -0.019770
v -0.000000 0.047358 0.100068
v -0.014999 0.053571 0.100068
v -0.021212 0.068570 0.100068
v -0.014999 0.083569 0.100068
v -0.000000 0.089781 0.100068
v -0.000000 0.047358 0.088672
v -0.014999 0.053571 0.088672
v -0.021212 0.068570 0.088672
v -0.014999 0.083569 0.088672
v -0.000000 0.089781 0.088672
v 0.000000 0.055641 0.066124
v 0.000000 0.081499 0.066124
v -0.012929 0.068570 0.066124
v -0.009142 0.077712 0.066124
v -0.009142 0.059428 0.066124
v 0.000000 0.068570 -0.019770
v -0.022010 0.068570 -0.019770
v -0.022010 0.068570 0.042482
v 0.000000 0.043245 0.042482
v 0.000000 0.093895 0.042482
v -0.009890 0.092623 -0.034621
v -0.022010 0.092623 -0.034621
v -0.009890 0.069655 -0.033965
v -0.022010 0.069655 -0.033965
v -0.009923 0.088487 -0.053097
v -0.022010 0.088487 -0.053097
v -0.009923 0.070423 -0.050505
v -0.022010 0.070423 -0.050505
v -0.009920 0.082572 -0.067808
v -0.022010 0.082572 -0.067808
v -0.009920 0.068899 -0.064021
v -0.022010 0.068899 -0.064021
v -0.009890 0.074143 -0.084292
v -0.022010 0.074143 -0.084292
v -0.009890 0.066358 -0.080797
v -0.022010 0.066358 -0.080797
v -0.009890 0.061589 -0.100617
v -0.022010 0.061589 -0.100617
v -0.009890 0.060034 -0.099722
v -0.022010 0.060034 -0.099722
v 0.018881 -0.262274 -0.007526
v 0.018881 -0.262274 0.030237
v 0.013875 0.025588 0.025231
v 0.013875 0.025588 -0.002520
v 0.015933 -0.127058 -0.004577
v 0.015933 -0.127058 0.027289
v 0.013875 -0.113368 -0.002520
v 0.013875 -0.113368 0.025231
v 0.015933 -0.251182 -0.004577
v 0.015933 -0.251182 0.027289
v 0.020354 0.043245 0.031709
v 0.020354 0.043245 -0.008998
v 0.015933 -0.273366 0.027289
v 0.015933 -0.273366 -0.004577
v 0.022010 0.043245 0.042482
v 0.022010 0.043245 -0.019770
v 0.022010 0.093895 0.042482
v 0.022010 0.093895 -0.019770
v 0.014999 0.053571 0.100068
v 0.021212 0.068570 0.100068
v 0.014999 0.083569 0.100068
v 0.014999 0.053571 0.088672
v 0.021212 0.068570 0.088672
v 0.014999 0.083569 0.088672
v 0.012929 0.068570 0.066124
v 0.009142 0.077712 0.066124
v 0.009142 0.059428 0.066124
v 0.022010 0.068570 -0.019770
v 0.022010 0.068570 0.042482
v 0.009890 0.092623 -0.034621
v 0.022010 0.092623 -0.034621
v 0.009890 0.069655 -0.033965
v 0.022010 0.069655 -0.033965
v 0.009923 0.088487 -0.053097
v 0.022010 0.088487 -0.053097
v 0.009923 0.070423 -0.050505
v 0.022010 0.070423 -0.050505
v 0.009920 0.082572 -0.067808
v 0.022010 0.082572 -0.067808
v 0.009920 0.068899 -0.064021
v 0.022010 0.068899 -0.064021
v 0.009890 0.074143 -0.084292
v 0.022010 0.074143 -0.084292
v 0.009890 0.066358 -0.080797
v 0.022010 0.066358 -0.080797
v 0.009890 0.061589 -0.100617
v 0.022010 0.061589 -0.100617
v 0.009890 0.060034 -0.099722
v 0.022010 0.060034 -0.099722
vt 0.071309 0.945620
vt 0.071309 0.945620
vt 0.071309 0.945620
vt 0.071309 0.945620
vt 0.071309 0.945620
vt 0.071309 0.945620
vt 0.071309 0.945620
vt 0.071309 0.945620
vt 0.071309 0.945620
vt 0.071309 0.945620
vt 0.071309 0.945620
vt 0.071309 0.945620
vt 0.071309 0.945620
vt 0.071309 0.945620
vt 0.071309 0.945620
vt 0.071309 0.945620
vt 0.071309 0.945620
vt 0.071309 0.945620
vt 0.071309 0.945620
vt 0.071309 0.945620
vt 0.071309 0.945620
vt 0.071309 0.945620
vt 0.071309 0.945620
vt 0.071309 0.945620
vt 0.071309 0.945620
vt 0.071309 0.945620
vt 0.071309 0.945620
vt 0.071309 0.945620
vt 0.071309 0.945620
vt 0.071309 0.945620
vt 0.071309 0.945620
vt 0.071309 0.945620
vt 0.071309 0.945620
vt 0.071309 0.945620
vt 0.071309 0.945620
vt 0.071309 0.945620
vt 0.071309 0.945620
vt 0.071309 0.945620
vt 0.071309 0.945620
vt 0.071309 0.945620
vt 0.071309 0.945620
vt 0.071309 0.945620
vt 0.301575 0.936021
vt 0.301575 0.936021
vt 0.301575 0.936021
vt 0.301575 0.936021
vt 0.301575 0.936021
vt 0.301575 0.936021
vt 0.301575 0.936021
vt 0.301575 0.936021
vt 0.301575 0.936021
vt 0.301575 0.936021
vt 0.301575 0.936021
vt 0.301575 0.936021
vt 0.301575 0.936021
vt 0.301575 0.936021
vt 0.301575 0.936021
vt 0.301575 0.936021
vt 0.301575 0.936021
vt 0.301575 0.936021
vt 0.301575 0.936021
vt 0.301575 0.936021
vt 0.301575 0.936021
vt 0.301575 0.936021
vt 0.301575 0.936021
vt 0.301575 0.936021
vt 0.301575 0.936021
vt 0.301575 0.936021
vt 0.301575 0.936021
vt 0.301575 0.936021
vt 0.301575 0.936021
vt 0.301575 0.936021
vt 0.301575 0.936021
vt 0.301575 0.936021
vt 0.301575 0.936021
vt 0.301575 0.936021
vt 0.301575 0.936021
vt 0.301575 0.936021
vt 0.301575 0.936021
vt 0.301575 0.936021
vt 0.301575 0.936021
vt 0.301575 0.936021
vt 0.301575 0.936021
vt 0.301575 0.936021
vt 0.301575 0.936021
vt 0.301575 0.936021
vt 0.301575 0.936021
vt 0.301575 0.936021
vt 0.301575 0.936021
vt 0.301575 0.936021
vt 0.301575 0.936021
vt 0.301575 0.936021
vt 0.301575 0.936021
vt 0.301575 0.936021
vt 0.301575 0.936021
vt 0.301575 0.936021
vt 0.301575 0.936021
vt 0.301575 0.936021
vt 0.301575 0.936021
vt 0.301575 0.936021
vt 0.301575 0.936021
vt 0.301575 0.936021
vt 0.301575 0.936021
vt 0.301575 0.936021
vt 0.301575 0.936021
vt 0.301575 0.936021
vt 0.301575 0.936021
vt 0.301575 0.936021
vt 0.301575 0.936021
vt 0.301575 0.936021
vt 0.301575 0.936021
vt 0.301575 0.936021
vt 0.301575 0.936021
vt 0.301575 0.936021
vt 0.301575 0.936021
vt 0.301575 0.936021
vt 0.301575 0.936021
vt 0.301575 0.936021
vt 0.301575 0.936021
vt 0.301575 0.936021
vt 0.301575 0.936021
vt 0.301575 0.936021
vt 0.301575 0.936021
vt 0.294537 0.558071
vt 0.294537 0.558071
vt 0.294537 0.558071
vt 0.294537 0.558071
vt 0.294537 0.558071
vt 0.294537 0.558071
vt 0.294537 0.558071
vt 0.294537 0.558071
vt 0.294537 0.558071
vt 0.294537 0.558071
vt 0.294537 0.558071
vt 0.294537 0.558071
vn -0.3827 0.0000 -0.9239
vn -0.3827 0.0000 0.9239
vn -0.3755 0.1927 -0.9066
vn -0.3755 0.1927 0.9066
vn -0.9889 0.1486 -0.0000
vn -0.9664 -0.2569 0.0000
vn -0.3615 0.3281 0.8727
vn -1.0000 0.0000 0.0000
vn -0.9388 -0.3444 0.0000
vn -0.3451 -0.4323 -0.8331
vn -0.3615 -0.3281 -0.8727
vn -0.3615 0.3281 -0.8727
vn -0.9664 0.2569 0.0000
vn -0.3615 -0.3281 0.8727
vn -0.3451 -0.4323 0.8331
vn 0.3827 0.0000 -0.9239
vn 0.3827 0.0000 0.9239
vn 0.3755 0.1927 -0.9066
vn 0.3755 0.1927 0.9066
vn 0.9889 0.1486 0.0000
vn 0.9664 -0.2569 0.0000
vn 0.3615 0.3281 0.8727
vn 1.0000 0.0000 0.0000
vn 0.9388 -0.3444 0.0000
vn 0.3451 -0.4323 -0.8331
vn 0.3615 -0.3281 -0.8727
vn 0.3615 0.3281 -0.8727
vn 0.9664 0.2569 0.0000
vn 0.3615 -0.3281 0.8727
vn 0.3451 -0.4323 0.8331
vn 0.0000 -1.0000 0.0000
vn 0.8265 -0.0076 -0.5629
vn -0.9239 -0.3827 -0.0000
vn -0.9239 0.3827 -0.0000
vn -0.3827 -0.9239 -0.0000
vn -0.3827 0.9239 -0.0000
vn -0.3624 0.8749 -0.3214
vn -0.8749 -0.3624 -0.3214
vn -0.8749 0.3624 -0.3214
vn -0.8895 -0.0977 0.4463
vn -0.8895 0.0977 0.4463
vn -0.1020 0.8388 0.5347
vn 0.0000 0.0000 -1.0000
vn 0.0000 -0.0000 1.0000
vn 0.0000 -0.9989 -0.0464
vn 0.0000 0.9964 -0.0853
vn 0.0000 -0.9971 -0.0762
vn 1.0000 0.0000 0.0002
vn 1.0000 -0.0001 -0.0018
vn 0.0000 0.9758 -0.2184
vn 0.0000 0.9278 -0.3731
vn 0.0000 -0.9937 0.1121
vn 0.0000 -0.9485 0.3169
vn 0.0000 0.8904 -0.4553
vn 0.0000 -0.9887 0.1498
vn 1.0000 0.0005 0.0016
vn 0.0000 -0.4988 -0.8667
vn 0.0000 0.7927 -0.6096
vn -0.3624 -0.8749 -0.3214
vn -0.1020 -0.8388 0.5347
vn 0.0000 1.0000 0.0000
vn -0.8265 -0.0076 -0.5629
vn 0.9239 -0.3827 -0.0000
vn 0.9239 0.3827 0.0000
vn 0.3827 -0.9239 0.0000
vn 0.3827 0.9239 0.0000
vn 0.3624 0.8749 -0.3214
vn 0.8749 -0.3624 -0.3214
vn 0.8749 0.3624 -0.3214
vn 0.8895 -0.0977 0.4463
vn 0.8895 0.0977 0.4463
vn 0.1020 0.8388 0.5347
vn -1.0000 0.0000 0.0002
vn -1.0000 -0.0001 -0.0018
vn -1.0000 0.0005 0.0016
vn 0.3624 -0.8749 -0.3214
vn 0.1020 -0.8388 0.5347
usemtl M_PCL_Flat_Black
s off
f 17/1/1 9/2/1 10/3/1 19/4/1
f 20/5/2 12/6/2 11/7/2 18/8/2
f 9/2/3 13/9/3 15/10/3 10/3/3
f 12/6/4 16/11/4 14/12/4 11/7/4
f 14/12/5 13/9/5 9/2/5 11/7/5
f 2/13/6 28/14/6 25/15/6 4/16/6
f 18/8/7 4/16/7 3/17/7 20/5/7
f 11/7/8 9/2/8 17/1/8 18/8/8
f 5/18/9 21/19/9 24/20/9 8/21/9
f 8/21/10 24/20/10 23/22/10 7/23/10
f 1/24/11 27/25/11 28/14/11 2/13/11
f 19/4/12 1/24/12 2/13/12 17/1/12
f 17/1/13 2/13/13 4/16/13 18/8/13
f 4/16/14 25/15/14 26/26/14 3/17/14
f 6/27/15 22/28/15 21/19/15 5/18/15
f 83/29/16 19/4/16 10/3/16 79/30/16
f 20/5/17 84/31/17 80/32/17 12/6/17
f 79/30/18 10/3/18 15/10/18 81/33/18
f 12/6/19 80/32/19 82/34/19 16/11/19
f 82/34/20 80/32/20 79/30/20 81/33/20
f 75/35/21 76/36/21 87/37/21 88/38/21
f 84/31/22 20/5/22 3/17/22 76/36/22
f 80/32/23 84/31/23 83/29/23 79/30/23
f 77/39/24 78/40/24 86/41/24 85/42/24
f 78/40/25 7/23/25 23/22/25 86/41/25
f 1/24/26 75/35/26 88/38/26 27/25/26
f 19/4/27 83/29/27 75/35/27 1/24/27
f 83/29/28 84/31/28 76/36/28 75/35/28
f 76/36/29 3/17/29 26/26/29 87/37/29
f 6/27/30 77/39/30 85/42/30 22/28/30
f 25/15/31 28/14/31 27/25/31 88/38/31 87/37/31 26/26/31
usemtl M_PCL_Flat_Grey_Darker
f 33/43/32 50/44/32 57/45/32 55/46/32
f 52/47/8 32/48/8 34/49/8 51/50/8
f 37/51/33 42/52/33 41/53/33 36/54/33
f 38/55/34 43/56/34 42/52/34 37/51/34
f 36/54/35 41/53/35 40/57/35 35/58/35
f 39/59/36 44/60/36 43/56/36 38/55/36
f 44/60/37 46/61/37 48/62/37 43/56/37
f 42/52/38 47/63/38 49/64/38 41/53/38
f 43/56/39 48/62/39 47/63/39 42/52/39
f 47/63/40 52/47/40 29/65/40 49/64/40
f 52/47/41 47/63/41 48/62/41 32/48/41
f 46/61/42 54/66/42 32/48/42 48/62/42
f 29/65/8 52/47/8 51/50/8 31/67/8
f 31/67/43 51/50/43 50/44/43 30/68/43
f 39/59/44 38/55/44 37/51/44 36/54/44 35/58/44 93/69/44 94/70/44 95/71/44
f 29/65/31 31/67/31 30/68/31 53/72/31
f 57/45/45 58/73/45 62/74/45 61/75/45
f 34/49/46 33/43/46 55/46/46 56/76/46
f 50/44/47 51/50/47 58/73/47 57/45/47
f 51/50/8 34/49/8 56/76/8 58/73/8
f 59/77/48 61/75/48 65/78/48 63/79/48
f 55/46/49 57/45/49 61/75/49 59/77/49
f 58/73/8 56/76/8 60/80/8 62/74/8
f 56/76/50 55/46/50 59/77/50 60/80/50
f 66/81/8 64/82/8 68/83/8 70/84/8
f 62/74/8 60/80/8 64/82/8 66/81/8
f 60/80/51 59/77/51 63/79/51 64/82/51
f 61/75/52 62/74/52 66/81/52 65/78/52
f 69/85/53 70/84/53 74/86/53 73/87/53
f 64/82/54 63/79/54 67/88/54 68/83/54
f 65/78/55 66/81/55 70/84/55 69/85/55
f 63/79/56 65/78/56 69/85/56 67/88/56
f 74/86/57 72/89/57 71/90/57 73/87/57
f 67/88/23 69/85/23 73/87/23 71/90/23
f 70/84/8 68/83/8 72/89/8 74/86/8
f 68/83/58 67/88/58 71/90/58 72/89/58
f 41/53/59 49/64/59 45/91/59 40/57/59
f 49/64/60 29/65/60 53/72/60 45/91/60
f 32/48/61 54/66/61 91/92/61 92/93/61 33/43/61 34/49/61
f 33/43/62 104/94/62 106/95/62 50/44/62
f 103/96/23 102/97/23 92/93/23 91/92/23
f 94/70/63 93/69/63 96/98/63 97/99/63
f 95/71/64 94/70/64 97/99/64 98/100/64
f 93/69/65 35/58/65 40/57/65 96/98/65
f 39/59/66 95/71/66 98/100/66 44/60/66
f 44/60/67 98/100/67 100/101/67 46/61/67
f 97/99/68 96/98/68 101/102/68 99/103/68
f 98/100/69 97/99/69 99/103/69 100/101/69
f 99/103/70 101/102/70 89/104/70 103/96/70
f 103/96/71 91/92/71 100/101/71 99/103/71
f 46/61/72 100/101/72 91/92/72 54/66/72
f 89/104/23 90/105/23 102/97/23 103/96/23
f 90/105/43 30/68/43 50/44/43 102/97/43
f 89/104/31 53/72/31 30/68/31 90/105/31
f 106/95/45 110/106/45 111/107/45 107/108/45
f 92/93/46 105/109/46 104/94/46 33/43/46
f 50/44/47 106/95/47 107/108/47 102/97/47
f 102/97/23 107/108/23 105/109/23 92/93/23
f 108/110/73 112/111/73 114/112/73 110/106/73
f 104/94/74 108/110/74 110/106/74 106/95/74
f 107/108/23 111/107/23 109/113/23 105/109/23
f 105/109/50 109/113/50 108/110/50 104/94/50
f 115/114/23 119/115/23 117/116/23 113/117/23
f 111/107/23 115/114/23 113/117/23 109/113/23
f 109/113/51 113/117/51 112/111/51 108/110/51
f 110/106/52 114/112/52 115/114/52 111/107/52
f 118/118/53 122/119/53 123/120/53 119/115/53
f 113/117/54 117/116/54 116/121/54 112/111/54
f 114/112/55 118/118/55 119/115/55 115/114/55
f 112/111/75 116/121/75 118/118/75 114/112/75
f 123/120/57 122/119/57 120/122/57 121/123/57
f 116/121/8 120/122/8 122/119/8 118/118/8
f 119/115/23 123/120/23 121/123/23 117/116/23
f 117/116/58 121/123/58 120/122/58 116/121/58
f 96/98/76 40/57/76 45/91/76 101/102/76
f 101/102/77 45/91/77 53/72/77 89/104/77
usemtl M_PCL_Flat_Brown.Sienna
f 8/124/8 13/125/8 14/126/8 5/127/8
f 16/128/2 6/129/2 5/127/2 14/126/2
f 13/125/1 8/124/1 7/130/1 15/131/1
f 78/132/23 77/133/23 82/134/23 81/135/23
f 16/128/17 82/134/17 77/133/17 6/129/17
f 81/135/16 15/131/16 7/130/16 78/132/16
