# Blender v3.0.1 OBJ File: 'Flat_Melee.blend'
# www.blender.org
mtllib Wrench.mtl
o Wrench_Cube
v 0.008280 -0.239582 0.027498
v 0.008280 -0.244582 0.022498
v 0.012204 -0.239582 0.022491
v 0.008280 0.033580 0.034714
v 0.012204 0.034050 0.029742
v 0.008280 0.039431 0.030165
v 0.008280 -0.239582 -0.003602
v 0.012204 -0.239582 0.001398
v 0.008280 -0.244582 0.001398
v 0.012204 0.039895 -0.003602
v 0.008280 0.045366 -0.003602
v 0.008280 -0.058871 0.027498
v 0.012204 -0.058871 0.022491
v 0.008280 -0.062168 -0.003602
v 0.012204 -0.058871 0.001398
v 0.012204 0.033373 -0.046282
v 0.008280 0.038977 -0.046282
v 0.008280 -0.004666 -0.046282
v 0.012204 0.002135 -0.046282
v 0.012204 0.023643 -0.051363
v 0.008280 0.023643 -0.054715
v 0.012204 0.011690 -0.051363
v 0.008280 0.011690 -0.054715
v 0.008280 0.047062 -0.023000
v 0.012204 0.041543 -0.023000
v 0.008280 -0.041655 -0.023000
v -0.008280 -0.239582 0.027498
v -0.012204 -0.239582 0.022491
v -0.008280 -0.244582 0.022498
v -0.008280 0.033580 0.034714
v -0.008280 0.039431 0.030165
v -0.012204 0.034050 0.029742
v -0.008280 -0.239582 -0.003602
v -0.008280 -0.244582 0.001398
v -0.012204 -0.239582 0.001398
v -0.008280 0.045366 -0.003602
v -0.012204 0.039895 -0.003602
v -0.012204 -0.058871 0.022491
v -0.008280 -0.058871 0.027498
v -0.012204 -0.058871 0.001398
v -0.008280 -0.062168 -0.003602
v -0.008280 0.038977 -0.046282
v -0.012204 0.033373 -0.046282
v -0.012204 0.002135 -0.046282
v -0.008280 -0.004666 -0.046282
v -0.012204 0.023643 -0.051363
v -0.008280 0.023643 -0.054715
v -0.012204 0.011690 -0.051363
v -0.008280 0.011690 -0.054715
v -0.012204 0.041543 -0.023000
v -0.008280 0.047062 -0.023000
v -0.008280 -0.041655 -0.023000
v -0.012204 -0.029112 -0.025449
v 0.008280 -0.029112 -0.030895
v 0.008280 -0.009096 -0.043493
v 0.012204 -0.029112 -0.025449
v 0.012204 -0.009096 -0.037997
v 0.012204 -0.009096 -0.023000
v 0.012204 -0.029112 -0.006316
v 0.012204 -0.009096 -0.006316
v -0.012204 -0.009096 -0.023000
v -0.012204 -0.009096 -0.037997
v -0.008280 -0.029112 -0.030895
v -0.008280 -0.009096 -0.043493
v -0.012204 -0.029112 -0.006316
v -0.012204 -0.009096 -0.006316
v 0.012204 -0.226338 0.016624
v 0.012204 -0.214009 0.016624
v 0.012204 -0.229426 0.015345
v 0.012204 -0.210921 0.015345
v 0.012204 -0.214009 0.007892
v 0.012204 -0.226338 0.007892
v 0.012204 -0.230705 0.012258
v 0.012204 -0.229426 0.009171
v 0.012204 -0.210921 0.009171
v 0.012204 -0.209643 0.012258
v -0.012204 -0.226338 0.016624
v -0.012204 -0.214009 0.016624
v -0.012204 -0.229426 0.015345
v -0.012204 -0.210921 0.015345
v -0.012204 -0.214009 0.007892
v -0.012204 -0.226338 0.007892
v -0.012204 -0.230705 0.012258
v -0.012204 -0.229426 0.009171
v -0.012204 -0.210921 0.009171
v -0.012204 -0.209643 0.012258
v -0.018169 -0.028700 -0.025000
v -0.018169 -0.009508 -0.025000
v -0.012847 -0.028700 -0.037847
v -0.012847 -0.009508 -0.037847
v 0.000000 -0.028700 -0.043169
v 0.000000 -0.009508 -0.043169
v 0.012847 -0.028700 -0.037847
v 0.012847 -0.009508 -0.037847
v 0.018169 -0.028700 -0.025000
v 0.018169 -0.009508 -0.025000
v 0.012847 -0.028700 -0.012152
v 0.012847 -0.009508 -0.012152
v 0.000000 -0.028700 -0.006831
v 0.000000 -0.009508 -0.006831
v -0.012847 -0.028700 -0.012152
v -0.012847 -0.009508 -0.012152
v 0.006508 -0.057642 -0.012967
v 0.006508 -0.057642 -0.036319
v 0.006508 0.068882 -0.012967
v 0.006508 0.068882 -0.036319
v 0.006508 0.047875 -0.004702
v 0.006508 0.035658 -0.004702
v 0.006508 0.075798 -0.010398
v 0.006508 0.047875 0.031561
v 0.006508 0.035658 0.031561
v 0.006508 0.079205 -0.004702
v 0.006508 0.104750 -0.004702
v 0.006508 0.079205 0.031561
v 0.006508 0.098542 0.017319
v 0.006508 0.086745 0.031561
v 0.006508 0.085579 -0.035473
v 0.006508 0.102105 -0.020499
v 0.006508 -0.065449 -0.012967
v 0.006508 -0.073664 -0.020232
v 0.006508 -0.071258 -0.015095
v 0.006508 -0.073664 -0.029054
v 0.006508 -0.065449 -0.036319
v 0.006508 -0.071258 -0.034192
v -0.006508 -0.057642 -0.012967
v -0.006508 -0.057642 -0.036319
v -0.006508 0.068882 -0.012967
v -0.006508 0.068882 -0.036319
v -0.006508 0.047875 -0.004702
v -0.006508 0.035658 -0.004702
v -0.006508 0.075798 -0.010398
v -0.006508 0.047875 0.031561
v -0.006508 0.035658 0.031561
v -0.006508 0.079205 -0.004702
v -0.006508 0.104750 -0.004702
v -0.006508 0.098542 0.017319
v -0.006508 0.086745 0.031561
v -0.006508 0.085579 -0.035473
v -0.006508 0.102105 -0.020499
v -0.006508 -0.065449 -0.012967
v -0.006508 -0.073664 -0.020232
v -0.006508 -0.071258 -0.015095
v -0.006508 -0.073664 -0.029054
v -0.006508 -0.065449 -0.036319
v -0.006508 -0.071258 -0.034192
v 0.006508 0.047875 0.027531
v 0.006508 0.049723 0.028798
v 0.006508 0.049723 0.030294
v 0.006508 0.077357 0.030294
v 0.006508 0.077357 0.028798
v -0.006508 0.079205 0.027531
v -0.006508 0.079205 0.031561
v -0.006508 0.049723 0.028798
v -0.006508 0.049723 0.030294
v -0.006508 0.077357 0.030294
v -0.006508 0.077357 0.028798
v 0.006508 0.079205 0.027531
v 0.006508 0.049723 0.024769
v 0.006508 0.049723 0.026265
v 0.006508 0.077357 0.026265
v 0.006508 0.077357 0.024769
v -0.006508 0.047875 0.027531
v -0.006508 0.047875 0.023502
v -0.006508 0.049723 0.024769
v -0.006508 0.049723 0.026265
v -0.006508 0.077357 0.026265
v -0.006508 0.077357 0.024769
v 0.006508 0.047875 0.023502
v 0.006508 0.079205 0.023502
v 0.006508 0.049723 0.020740
v 0.006508 0.049723 0.022236
v 0.006508 0.077357 0.022236
v 0.006508 0.077357 0.020740
v -0.006508 0.079205 0.023502
v -0.006508 0.049723 0.020740
v -0.006508 0.049723 0.022236
v -0.006508 0.077357 0.022236
v -0.006508 0.077357 0.020740
v 0.006508 0.047875 0.019473
v 0.006508 0.079205 0.019473
v 0.006508 0.049723 0.016711
v 0.006508 0.049723 0.018207
v 0.006508 0.077357 0.018207
v 0.006508 0.077357 0.016711
v -0.006508 0.047875 0.019473
v -0.006508 0.047875 0.015444
v -0.006508 0.079205 0.019473
v -0.006508 0.049723 0.016711
v -0.006508 0.049723 0.018207
v -0.006508 0.077357 0.018207
v -0.006508 0.077357 0.016711
v 0.006508 0.047875 0.015444
v 0.006508 0.047875 0.011415
v 0.006508 0.079205 0.011415
v 0.006508 0.079205 0.015444
v 0.006508 0.049723 0.012681
v 0.006508 0.049723 0.014178
v 0.006508 0.077357 0.014178
v 0.006508 0.077357 0.012681
v -0.006508 0.047875 0.011415
v -0.006508 0.079205 0.011415
v -0.006508 0.079205 0.015444
v -0.006508 0.049723 0.012681
v -0.006508 0.049723 0.014178
v -0.006508 0.077357 0.014178
v -0.006508 0.077357 0.012681
v 0.006508 0.047875 0.007386
v 0.006508 0.079205 0.007386
v 0.006508 0.049723 0.008652
v 0.006508 0.049723 0.010148
v 0.006508 0.077357 0.010148
v 0.006508 0.077357 0.008652
v -0.006508 0.047875 0.007386
v -0.006508 0.049723 0.008652
v -0.006508 0.049723 0.010148
v -0.006508 0.077357 0.010148
v -0.006508 0.077357 0.008652
v 0.006508 0.047875 0.003357
v 0.006508 0.049723 0.004623
v 0.006508 0.049723 0.006119
v 0.006508 0.077357 0.006119
v 0.006508 0.077357 0.004623
v -0.006508 0.047875 0.003357
v -0.006508 0.079205 0.003357
v -0.006508 0.079205 0.007386
v -0.006508 0.049723 0.004623
v -0.006508 0.049723 0.006119
v -0.006508 0.077357 0.006119
v -0.006508 0.077357 0.004623
v 0.006508 0.079205 -0.000673
v 0.006508 0.079205 0.003357
v 0.006508 0.049723 0.000594
v 0.006508 0.049723 0.002090
v 0.006508 0.077357 0.002090
v 0.006508 0.077357 0.000594
v -0.006508 0.079205 -0.000673
v -0.006508 0.049723 0.000594
v -0.006508 0.049723 0.002090
v -0.006508 0.077357 0.002090
v -0.006508 0.077357 0.000594
v 0.006508 0.047875 -0.000673
v 0.006508 0.049723 -0.003435
v 0.006508 0.049723 -0.001939
v 0.006508 0.077357 -0.001939
v 0.006508 0.077357 -0.003435
v -0.006508 0.047875 -0.000673
v -0.006508 0.049723 -0.003435
v -0.006508 0.049723 -0.001939
v -0.006508 0.077357 -0.001939
v -0.006508 0.077357 -0.003435
vt 0.073390 0.933098
vt 0.073390 0.933098
vt 0.073390 0.933098
vt 0.073390 0.933098
vt 0.073390 0.933098
vt 0.073390 0.933098
vt 0.073390 0.933098
vt 0.073390 0.933098
vt 0.073390 0.933098
vt 0.073390 0.933098
vt 0.073390 0.933098
vt 0.073390 0.933098
vt 0.073390 0.933098
vt 0.073390 0.933098
vt 0.073390 0.933098
vt 0.073390 0.933098
vt 0.312086 0.928176
vt 0.312086 0.928176
vt 0.312086 0.928176
vt 0.312086 0.928176
vt 0.312086 0.928176
vt 0.312086 0.928176
vt 0.312086 0.928176
vt 0.312086 0.928176
vt 0.312086 0.928176
vt 0.312086 0.928176
vt 0.312086 0.928176
vt 0.312086 0.928176
vt 0.312086 0.928176
vt 0.312086 0.928176
vt 0.312086 0.928176
vt 0.312086 0.928176
vt 0.312086 0.928176
vt 0.312086 0.928176
vt 0.312086 0.928176
vt 0.312086 0.928176
vt 0.312086 0.928176
vt 0.312086 0.928176
vt 0.312086 0.928176
vt 0.312086 0.928176
vt 0.312086 0.928176
vt 0.312086 0.928176
vt 0.312086 0.928176
vt 0.312086 0.928176
vt 0.312086 0.928176
vt 0.312086 0.928176
vt 0.312086 0.928176
vt 0.312086 0.928176
vt 0.312086 0.928176
vt 0.312086 0.928176
vt 0.312086 0.928176
vt 0.312086 0.928176
vt 0.312086 0.928176
vt 0.312086 0.928176
vt 0.312086 0.928176
vt 0.312086 0.928176
vt 0.312086 0.928176
vt 0.312086 0.928176
vt 0.312086 0.928176
vt 0.312086 0.928176
vt 0.929742 0.930637
vt 0.929742 0.930637
vt 0.929742 0.930637
vt 0.929742 0.930637
vt 0.929742 0.930637
vt 0.929742 0.930637
vt 0.929742 0.930637
vt 0.929742 0.930637
vt 0.929742 0.930637
vt 0.929742 0.930637
vt 0.929742 0.930637
vt 0.929742 0.930637
vt 0.929742 0.930637
vt 0.929742 0.930637
vt 0.929742 0.930637
vt 0.929742 0.930637
vt 0.929742 0.930637
vt 0.929742 0.930637
vt 0.929742 0.930637
vt 0.929742 0.930637
vt 0.929742 0.930637
vt 0.929742 0.930637
vt 0.929742 0.930637
vt 0.929742 0.930637
vt 0.929742 0.930637
vt 0.929742 0.930637
vt 0.929742 0.930637
vt 0.929742 0.930637
vt 0.929742 0.930637
vt 0.929742 0.930637
vt 0.929742 0.930637
vt 0.929742 0.930637
vt 0.929742 0.930637
vt 0.929742 0.930637
vt 0.929742 0.930637
vt 0.929742 0.930637
vt 0.929742 0.930637
vt 0.929742 0.930637
vt 0.929742 0.930637
vt 0.929742 0.930637
vt 0.929742 0.930637
vt 0.929742 0.930637
vt 0.929742 0.930637
vt 0.929742 0.930637
vt 0.929742 0.930637
vt 0.929742 0.930637
vt 0.929742 0.930637
vt 0.929742 0.930637
vt 0.929742 0.930637
vt 0.929742 0.930637
vt 0.929742 0.930637
vt 0.929742 0.930637
vt 0.929742 0.930637
vt 0.929742 0.930637
vt 0.929742 0.930637
vt 0.929742 0.930637
vt 0.929742 0.930637
vt 0.929742 0.930637
vt 0.929742 0.930637
vt 0.929742 0.930637
vt 0.929742 0.930637
vt 0.929742 0.930637
vt 0.929742 0.930637
vt 0.929742 0.930637
vt 0.929742 0.930637
vt 0.929742 0.930637
vt 0.929742 0.930637
vt 0.929742 0.930637
vt 0.929742 0.930637
vt 0.929742 0.930637
vt 0.929742 0.930637
vt 0.929742 0.930637
vt 0.929742 0.930637
vt 0.929742 0.930637
vt 0.929742 0.930637
vt 0.929742 0.930637
vt 0.929742 0.930637
vt 0.929742 0.930637
vt 0.929742 0.930637
vt 0.929742 0.930637
vt 0.929742 0.930637
vt 0.929742 0.930637
vt 0.929742 0.930637
vt 0.929742 0.930637
vt 0.929742 0.930637
vt 0.929742 0.930637
vt 0.929742 0.930637
vt 0.929742 0.930637
vt 0.929742 0.930637
vt 0.929742 0.930637
vt 0.929742 0.930637
vt 0.929742 0.930637
vt 0.929742 0.930637
vt 0.929742 0.930637
vt 0.929742 0.930637
vt 0.929742 0.930637
vt 0.929742 0.930637
vt 0.929742 0.930637
vt 0.929742 0.930637
vt 0.929742 0.930637
vt 0.929742 0.930637
vt 0.929742 0.930637
vt 0.929742 0.930637
vt 0.929742 0.930637
vt 0.929742 0.930637
vt 0.929742 0.930637
vt 0.929742 0.930637
vt 0.929742 0.930637
vt 0.929742 0.930637
vt 0.929742 0.930637
vt 0.929742 0.930637
vt 0.929742 0.930637
vt 0.934664 0.810059
vt 0.934664 0.810059
vt 0.934664 0.810059
vt 0.934664 0.810059
vt 0.934664 0.810059
vt 0.934664 0.810059
vt 0.934664 0.810059
vt 0.934664 0.810059
vt 0.934664 0.810059
vt 0.934664 0.810059
vt 0.934664 0.810059
vt 0.934664 0.810059
vt 0.934664 0.810059
vt 0.934664 0.810059
vt 0.934664 0.810059
vt 0.934664 0.810059
vt 0.934664 0.810059
vt 0.934664 0.810059
vt 0.934664 0.810059
vt 0.934664 0.810059
vt 0.934664 0.810059
vt 0.934664 0.810059
vt 0.934664 0.810059
vt 0.934664 0.810059
vt 0.934664 0.810059
vt 0.934664 0.810059
vt 0.934664 0.810059
vt 0.934664 0.810059
vt 0.934664 0.810059
vt 0.934664 0.810059
vt 0.934664 0.810059
vt 0.934664 0.810059
vt 0.934664 0.810059
vt 0.934664 0.810059
vt 0.934664 0.810059
vt 0.934664 0.810059
vt 0.934664 0.810059
vt 0.934664 0.810059
vt 0.934664 0.810059
vt 0.934664 0.810059
vt 0.934664 0.810059
vt 0.934664 0.810059
vt 0.934664 0.810059
vt 0.934664 0.810059
vt 0.934664 0.810059
vt 0.934664 0.810059
vt 0.934664 0.810059
vt 0.934664 0.810059
vt 0.934664 0.810059
vt 0.934664 0.810059
vt 0.934664 0.810059
vt 0.934664 0.810059
vt 0.934664 0.810059
vt 0.934664 0.810059
vt 0.934664 0.810059
vt 0.934664 0.810059
vt 0.934664 0.810059
vt 0.934664 0.810059
vt 0.934664 0.810059
vt 0.934664 0.810059
vt 0.934664 0.810059
vt 0.934664 0.810059
vt 0.934664 0.810059
vt 0.934664 0.810059
vt 0.934664 0.810059
vt 0.934664 0.810059
vt 0.934664 0.810059
vt 0.934664 0.810059
vt 0.934664 0.810059
vt 0.934664 0.810059
vt 0.934664 0.810059
vt 0.934664 0.810059
vt 0.934664 0.810059
vt 0.934664 0.810059
vt 0.934664 0.810059
vt 0.934664 0.810059
vt 0.934664 0.810059
vt 0.934664 0.810059
vt 0.934664 0.810059
vt 0.934664 0.810059
vt 0.934664 0.810059
vt 0.934664 0.810059
vt 0.934664 0.810059
vt 0.934664 0.810059
vt 0.934664 0.810059
vt 0.934664 0.810059
vn -0.9239 0.0000 -0.3827
vn -0.3827 0.0000 -0.9239
vn 0.3827 0.0000 -0.9239
vn 0.9239 0.0000 -0.3827
vn 0.9239 0.0000 0.3827
vn 0.3827 0.0000 0.9239
vn 0.0000 1.0000 -0.0000
vn -0.3827 0.0000 0.9239
vn -0.9239 0.0000 0.3827
vn 0.0000 -1.0000 0.0000
vn 0.0000 0.0000 -1.0000
vn 0.0000 0.0000 1.0000
vn 0.0000 -0.3482 0.9374
vn 1.0000 0.0000 -0.0000
vn 0.0000 0.0506 -0.9987
vn 0.0000 -0.9056 0.4242
vn 0.0000 0.6715 -0.7410
vn 0.0000 0.9625 0.2713
vn 0.0000 0.7701 0.6379
vn 0.0000 -0.8582 0.5133
vn 0.0000 0.9863 -0.1651
vn 0.0000 -0.3439 0.9390
vn 0.0000 -0.9056 -0.4242
vn 0.0000 -0.3439 -0.9390
vn -1.0000 0.0000 0.0000
vn 0.0000 -0.5652 0.8249
vn 0.0000 0.5652 0.8249
vn 0.0000 -0.5652 -0.8249
vn 0.0000 0.5652 -0.8249
vn -0.0000 -0.7071 0.7071
vn 0.0000 0.6137 0.7895
vn 0.0000 -0.5327 -0.8463
vn 0.0000 0.9962 0.0871
vn 0.0000 0.9447 -0.3281
vn 0.0000 -0.6871 -0.7266
vn 0.0000 -0.4583 -0.8888
vn 0.0000 0.9849 0.1731
vn 0.6699 -0.5250 0.5250
vn 0.6797 0.4502 0.5791
vn 0.6694 -0.5253 -0.5253
vn -0.6699 -0.5250 0.5250
vn -0.6797 0.4502 0.5791
vn -0.6694 -0.5253 -0.5253
vn 0.0000 -0.0778 0.9970
vn 0.7862 -0.0481 0.6161
vn 0.7867 0.0000 -0.6174
vn 0.7867 -0.6174 0.0000
vn 0.8080 0.5804 0.1019
vn 0.0000 -0.7071 -0.7071
vn 0.7871 0.0000 0.6169
vn 0.8010 0.5652 -0.1973
vn 0.7614 -0.3453 -0.5486
vn 0.7312 -0.3938 -0.5570
vn 0.6495 0.0000 -0.7603
vn 0.5816 0.3861 -0.7160
vn 0.6148 -0.3647 -0.6993
vn 0.8128 0.5804 0.0500
vn 0.8488 -0.3579 -0.3891
vn -0.7862 -0.0481 0.6161
vn -0.7867 0.0000 -0.6174
vn -0.7867 -0.6174 0.0000
vn -0.8080 0.5804 0.1019
vn -0.7871 0.0000 0.6169
vn -0.8010 0.5652 -0.1973
vn -0.7614 -0.3453 -0.5486
vn -0.7312 -0.3938 -0.5570
vn -0.6495 0.0000 -0.7603
vn -0.5816 0.3861 -0.7160
vn -0.6148 -0.3647 -0.6993
vn -0.8128 0.5804 0.0500
vn -0.8488 -0.3579 -0.3891
vn 0.0000 0.4819 -0.8762
vn 0.0000 -0.9239 0.3827
vn 0.0000 -0.3827 0.9239
vn -0.0000 -0.3827 -0.9239
vn -0.0000 -0.9239 -0.3827
vn 0.0000 0.3827 0.9239
vn 0.0000 0.9239 0.3827
vn -0.0000 0.9239 -0.3827
vn -0.0000 0.3827 -0.9239
usemtl M_PCL_Flat_Black
s off
f 87/1/1 88/2/1 90/3/1 89/4/1
f 89/4/2 90/3/2 92/5/2 91/6/2
f 91/6/3 92/5/3 94/7/3 93/8/3
f 93/8/4 94/7/4 96/9/4 95/10/4
f 95/10/5 96/9/5 98/11/5 97/12/5
f 97/12/6 98/11/6 100/13/6 99/14/6
f 90/3/7 88/2/7 102/15/7 100/13/7 98/11/7 96/9/7 94/7/7 92/5/7
f 99/14/8 100/13/8 102/15/8 101/16/8
f 101/16/9 102/15/9 88/2/9 87/1/9
f 87/1/10 89/4/10 91/6/10 93/8/10 95/10/10 97/12/10 99/14/10 101/16/10
usemtl M_PCL_Flat_Grey_Darker
f 104/17/11 126/18/11 128/19/11 106/20/11
f 133/21/12 111/22/12 110/23/12 132/24/12
f 127/25/13 105/26/13 109/27/13 131/28/13
f 104/17/14 106/20/14 105/26/14 103/29/14
f 125/30/12 103/29/12 105/26/12 127/25/12
f 106/20/15 128/19/15 138/31/15 117/32/15
f 114/33/10 152/34/10 134/35/10 112/36/10
f 108/37/14 107/38/14 110/23/14 111/22/14
f 121/39/16 142/40/16 141/41/16 120/42/16
f 129/43/7 132/24/7 110/23/7 107/38/7
f 111/22/10 133/21/10 130/44/10 108/37/10
f 130/44/11 129/43/11 107/38/11 108/37/11
f 117/32/17 138/31/17 139/45/17 118/46/17
f 135/47/18 136/48/18 115/49/18 113/50/18
f 115/49/19 136/48/19 137/51/19 116/52/19
f 131/28/20 109/27/20 112/36/20 134/35/20
f 152/34/12 114/33/12 116/52/12 137/51/12
f 112/36/14 113/50/14 115/49/14 116/52/14 114/33/14
f 106/20/14 117/32/14 118/46/14 113/50/14 112/36/14 109/27/14 105/26/14
f 118/46/21 139/45/21 135/47/21 113/50/21
f 104/17/14 103/29/14 119/53/14 121/39/14 120/42/14 122/54/14 124/55/14 123/56/14
f 123/56/11 144/57/11 126/18/11 104/17/11
f 119/53/22 140/58/22 142/40/22 121/39/22
f 143/59/23 145/60/23 124/55/23 122/54/23
f 145/60/24 144/57/24 123/56/24 124/55/24
f 125/30/12 140/58/12 119/53/12 103/29/12
f 120/42/10 141/41/10 143/59/10 122/54/10
f 126/18/25 125/30/25 127/25/25 128/19/25
f 130/44/25 133/21/25 132/24/25 129/43/25
f 134/35/25 152/34/25 137/51/25 136/48/25 135/47/25
f 128/19/25 127/25/25 131/28/25 134/35/25 135/47/25 139/45/25 138/31/25
f 126/18/25 144/57/25 145/60/25 143/59/25 141/41/25 142/40/25 140/58/25 125/30/25
usemtl M_PCL_Flat_White
f 147/61/7 153/62/7 154/63/7 148/64/7
f 149/65/14 150/66/14 157/67/14 114/68/14
f 152/69/26 155/70/26 149/65/26 114/68/26
f 154/63/27 132/71/27 110/72/27 148/64/27
f 158/73/7 164/74/7 165/75/7 159/76/7
f 156/77/28 151/78/28 157/67/28 150/66/28
f 149/65/10 155/70/10 156/77/10 150/66/10
f 162/79/29 153/62/29 147/61/29 146/80/29
f 147/61/14 148/64/14 110/72/14 146/80/14
f 155/70/25 152/69/25 151/78/25 156/77/25
f 153/62/25 162/79/25 132/71/25 154/63/25
f 160/81/14 161/82/14 169/83/14 157/67/14
f 151/78/26 166/84/26 160/81/26 157/67/26
f 165/75/27 162/79/27 146/80/27 159/76/27
f 170/85/7 175/86/7 176/87/7 171/88/7
f 167/89/28 174/90/28 169/83/28 161/82/28
f 160/81/10 166/84/10 167/89/10 161/82/10
f 163/91/29 164/74/29 158/73/29 168/92/29
f 158/73/14 159/76/14 146/80/14 168/92/14
f 166/84/25 151/78/25 174/90/25 167/89/25
f 164/74/25 163/91/25 162/79/25 165/75/25
f 172/93/14 173/94/14 180/95/14 169/83/14
f 174/90/26 177/96/26 172/93/26 169/83/26
f 176/87/27 163/91/27 168/92/27 171/88/27
f 181/97/7 188/98/7 189/99/7 182/100/7
f 178/101/28 187/102/28 180/95/28 173/94/28
f 172/93/10 177/96/10 178/101/10 173/94/10
f 185/103/29 175/86/29 170/85/29 179/104/29
f 170/85/14 171/88/14 168/92/14 179/104/14
f 177/96/25 174/90/25 187/102/25 178/101/25
f 175/86/25 185/103/25 163/91/25 176/87/25
f 183/105/14 184/106/14 195/107/14 180/95/14
f 187/102/26 190/108/26 183/105/26 180/95/26
f 189/99/27 185/103/27 179/104/27 182/100/27
f 196/109/7 203/110/7 204/111/7 197/112/7
f 191/113/28 202/114/28 195/107/28 184/106/28
f 183/105/10 190/108/10 191/113/10 184/106/10
f 186/115/29 188/98/29 181/97/29 192/116/29
f 181/97/14 182/100/14 179/104/14 192/116/14
f 190/108/25 187/102/25 202/114/25 191/113/25
f 188/98/25 186/115/25 185/103/25 189/99/25
f 198/117/14 199/118/14 194/119/14 195/107/14
f 202/114/26 205/120/26 198/117/26 195/107/26
f 204/111/27 186/115/27 192/116/27 197/112/27
f 209/121/7 214/122/7 215/123/7 210/124/7
f 206/125/28 201/126/28 194/119/28 199/118/28
f 198/117/10 205/120/10 206/125/10 199/118/10
f 200/127/29 203/110/29 196/109/29 193/128/29
f 196/109/14 197/112/14 192/116/14 193/128/14
f 205/120/25 202/114/25 201/126/25 206/125/25
f 203/110/25 200/127/25 186/115/25 204/111/25
f 211/129/14 212/130/14 208/131/14 194/119/14
f 201/126/26 216/132/26 211/129/26 194/119/26
f 215/123/27 200/127/27 193/128/27 210/124/27
f 219/133/7 226/134/7 227/135/7 220/136/7
f 217/137/28 225/138/28 208/131/28 212/130/28
f 211/129/10 216/132/10 217/137/10 212/130/10
f 213/139/29 214/122/29 209/121/29 207/140/29
f 209/121/14 210/124/14 193/128/14 207/140/14
f 216/132/25 201/126/25 225/138/25 217/137/25
f 214/122/25 213/139/25 200/127/25 215/123/25
f 221/141/14 222/142/14 231/143/14 208/131/14
f 225/138/26 228/144/26 221/141/26 208/131/26
f 227/135/27 213/139/27 207/140/27 220/136/27
f 232/145/7 237/146/7 238/147/7 233/148/7
f 229/149/28 224/150/28 231/143/28 222/142/28
f 221/141/10 228/144/10 229/149/10 222/142/10
f 223/151/29 226/134/29 219/133/29 218/152/29
f 219/133/14 220/136/14 207/140/14 218/152/14
f 228/144/25 225/138/25 224/150/25 229/149/25
f 226/134/25 223/151/25 213/139/25 227/135/25
f 234/153/14 235/154/14 230/155/14 231/143/14
f 224/150/26 239/156/26 234/153/26 231/143/26
f 238/147/27 223/151/27 218/152/27 233/148/27
f 242/157/7 247/158/7 248/159/7 243/160/7
f 240/161/28 236/162/28 230/155/28 235/154/28
f 234/153/10 239/156/10 240/161/10 235/154/10
f 246/163/29 237/146/29 232/145/29 241/164/29
f 232/145/14 233/148/14 218/152/14 241/164/14
f 239/156/25 224/150/25 236/162/25 240/161/25
f 237/146/25 246/163/25 223/151/25 238/147/25
f 244/165/14 245/166/14 112/167/14 230/155/14
f 236/162/26 249/168/26 244/165/26 230/155/26
f 248/159/27 246/163/27 241/164/27 243/160/27
f 250/169/28 134/170/28 112/167/28 245/166/28
f 244/165/10 249/168/10 250/169/10 245/166/10
f 129/171/29 247/158/29 242/157/29 107/172/29
f 242/157/14 243/160/14 241/164/14 107/172/14
f 249/168/25 236/162/25 134/170/25 250/169/25
f 247/158/25 129/171/25 246/163/25 248/159/25
usemtl M_PCL_Flat_Red.Carmine
f 27/173/30 29/174/30 2/175/30 1/176/30
f 8/177/14 15/178/14 13/179/14 3/180/14 69/181/14 67/182/14 68/183/14 70/184/14 76/185/14 75/186/14 71/187/14 72/188/14 74/189/14
f 69/181/14 3/180/14 8/177/14 74/189/14 73/190/14
f 30/191/31 4/192/31 6/193/31 31/194/31
f 15/178/14 10/195/14 5/196/14 13/179/14
f 7/197/11 33/198/11 41/199/11 14/200/11
f 2/175/10 29/174/10 34/201/10 9/202/10
f 26/203/32 52/204/32 63/205/32 54/206/32
f 16/207/14 19/208/14 22/209/14 20/210/14
f 51/211/33 36/212/33 11/213/33 24/214/33
f 17/215/34 42/216/34 51/211/34 24/214/34
f 84/217/25 35/218/25 28/219/25 79/220/25 83/221/25
f 79/220/25 28/219/25 38/222/25 40/223/25 35/218/25 84/217/25 82/224/25 81/225/25 85/226/25 86/227/25 80/228/25 78/229/25 77/230/25
f 41/199/35 52/204/35 26/203/35 14/200/35
f 64/231/32 45/232/32 18/233/32 55/234/32
f 61/235/10 58/236/10 60/237/10 66/238/10
f 59/239/14 60/237/14 10/195/14 15/178/14
f 58/236/14 57/240/14 19/208/14 16/207/14 25/241/14
f 49/242/11 47/243/11 21/244/11 23/245/11
f 59/239/14 15/178/14 56/246/14
f 45/232/36 49/242/36 23/245/36 18/233/36
f 11/213/37 36/212/37 31/194/37 6/193/37
f 40/223/25 38/222/25 32/247/25 37/248/25
f 53/249/25 40/223/25 65/250/25
f 43/251/25 46/252/25 48/253/25 44/254/25
f 60/237/14 58/236/14 25/241/14 10/195/14
f 61/235/25 50/255/25 43/251/25 44/254/25 62/256/25
f 66/238/25 37/248/25 50/255/25 61/235/25
f 1/176/38 2/175/38 3/180/38
f 4/192/39 5/196/39 6/193/39
f 7/197/40 8/177/40 9/202/40
f 27/173/41 28/219/41 29/174/41
f 30/191/42 31/194/42 32/247/42
f 33/198/43 34/201/43 35/218/43
f 39/257/44 12/258/44 4/192/44 30/191/44
f 13/179/45 5/196/45 4/192/45 12/258/45
f 15/178/46 8/177/46 7/197/46 14/200/46
f 2/175/47 9/202/47 8/177/47 3/180/47
f 11/213/48 6/193/48 5/196/48 10/195/48
f 33/198/49 7/197/49 9/202/49 34/201/49
f 3/180/50 13/179/50 12/258/50 1/176/50
f 25/241/51 16/207/51 17/215/51 24/214/51
f 56/246/52 26/203/52 54/206/52
f 55/234/53 18/233/53 19/208/53 57/240/53
f 20/210/54 22/209/54 23/245/54 21/244/54
f 16/207/55 20/210/55 21/244/55 17/215/55
f 22/209/56 19/208/56 18/233/56 23/245/56
f 10/195/57 25/241/57 24/214/57 11/213/57
f 14/200/58 26/203/58 56/246/58 15/178/58
f 39/257/59 30/191/59 32/247/59 38/222/59
f 41/199/60 33/198/60 35/218/60 40/223/60
f 28/219/61 35/218/61 34/201/61 29/174/61
f 37/248/62 32/247/62 31/194/62 36/212/62
f 27/173/63 39/257/63 38/222/63 28/219/63
f 51/211/64 42/216/64 43/251/64 50/255/64
f 53/249/65 63/205/65 52/204/65
f 45/232/66 64/231/66 62/256/66 44/254/66
f 47/243/67 49/242/67 48/253/67 46/252/67
f 42/216/68 47/243/68 46/252/68 43/251/68
f 49/242/69 45/232/69 44/254/69 48/253/69
f 36/212/70 51/211/70 50/255/70 37/248/70
f 40/223/71 53/249/71 52/204/71 41/199/71
f 66/238/11 60/237/11 59/239/11 65/250/11
f 21/244/72 47/243/72 42/216/72 17/215/72
f 75/186/73 76/185/73 86/227/73 85/226/73
f 75/186/74 85/226/74 81/225/74 71/187/74
f 71/187/12 81/225/12 82/224/12 72/188/12
f 70/184/75 68/183/75 78/229/75 80/228/75
f 76/185/76 70/184/76 80/228/76 86/227/76
f 68/183/11 67/182/11 77/230/11 78/229/11
f 72/188/77 82/224/77 84/217/77 74/189/77
f 83/221/78 73/190/78 74/189/78 84/217/78
f 79/220/79 69/181/79 73/190/79 83/221/79
f 67/182/80 69/181/80 79/220/80 77/230/80
f 1/176/12 12/258/12 39/257/12 27/173/12
f 57/240/10 58/236/10 61/235/10 62/256/10
f 55/234/10 57/240/10 62/256/10 64/231/10
f 56/246/7 54/206/7 63/205/7 53/249/7
f 65/250/25 40/223/25 37/248/25 66/238/25
f 56/246/7 53/249/7 65/250/7 59/239/7
